<svg width="1000" height="1000" viewBox="0 0 1000 1000" fill="none" xmlns="http://www.w3.org/2000/svg">
<circle cx="500" cy="500" r="500" fill="#5D78FC"/>
<path d="M104.172 541.216V482.125L309.854 395.761V460.392L174.058 511.102L176.189 507.977V515.506L174.058 512.239L309.854 563.091V627.58L104.172 541.216ZM366.423 629V410.818H433.895V450.591H436.168C440.145 436.197 446.632 425.496 455.628 418.489C464.624 411.386 475.088 407.835 487.02 407.835C490.24 407.835 493.554 408.072 496.963 408.545C500.372 408.924 503.545 409.54 506.48 410.392V470.761C503.166 469.625 498.81 468.725 493.412 468.062C488.109 467.4 483.374 467.068 479.207 467.068C470.969 467.068 463.535 468.915 456.906 472.608C450.372 476.206 445.211 481.273 441.423 487.807C437.73 494.246 435.884 501.822 435.884 510.534V629H366.423ZM657.723 324.455L563.973 672.75H504.74L598.49 324.455H657.723ZM901.651 541.216L695.969 627.58V563.091L831.764 512.239L829.776 515.506V507.977L831.764 511.102L695.969 460.392V395.761L901.651 482.125V541.216Z" fill="white"/>
</svg>
